<svg xmlns="http://www.w3.org/2000/svg" width="221" height="221" viewBox="0 0 221 221">
  <g id="Group_193" data-name="Group 193" transform="translate(-105 -169)">
    <circle id="Ellipse_23" data-name="Ellipse 23" cx="110.5" cy="110.5" r="110.5" transform="translate(105 169)" fill="#F0ECEC"/>
    <g id="Group_177" data-name="Group 177" transform="translate(55.436 151.76)">
      <g id="Group_156" data-name="Group 156" transform="translate(116.94 38.027)">
        <path id="Path_4211" data-name="Path 4211" d="M205.365,49.216V206.93a7.838,7.838,0,0,1-7.838,7.838H129.381a7.838,7.838,0,0,1-7.838-7.838V49.212a7.834,7.834,0,0,1,7.834-7.834h29.25l.025.09c.729,2.623,2.407,4.33,4.268,4.33h1.068c1.862,0,3.54-1.707,4.269-4.33l.028-.09h29.242A7.838,7.838,0,0,1,205.365,49.216Z" transform="translate(-121.543 -41.378)" fill="#fff" stroke="#263238" stroke-width="1"/>
      </g>
      <g id="Group_157" data-name="Group 157" transform="translate(145.187 141.051)">
        <rect id="Rectangle_14" data-name="Rectangle 14" width="28.754" height="8.96" rx="4.48" fill="#263238" stroke="#263238" stroke-linecap="round" stroke-linejoin="round" stroke-width="1"/>
      </g>
      <g id="Group_158" data-name="Group 158" transform="translate(116.94 162.352)">
        <path id="Path_4212" data-name="Path 4212" d="M121.543,312.257v41.227a7.838,7.838,0,0,0,7.838,7.838h68.146a7.838,7.838,0,0,0,7.838-7.838V312.257Z" transform="translate(-121.543 -312.257)" fill="#dbdbdb" stroke="#263238" stroke-linecap="round" stroke-linejoin="round" stroke-width="1"/>
      </g>
      <g id="Group_159" data-name="Group 159" transform="translate(120.529 167.33)">
        <rect id="Rectangle_15" data-name="Rectangle 15" width="22.982" height="7.721" rx="2.273" fill="#fff"/>
        <rect id="Rectangle_16" data-name="Rectangle 16" width="22.982" height="7.721" rx="2.273" transform="translate(25.718)" fill="#fff"/>
        <rect id="Rectangle_17" data-name="Rectangle 17" width="22.982" height="7.721" rx="2.273" transform="translate(51.437)" fill="#fff"/>
        <rect id="Rectangle_18" data-name="Rectangle 18" width="22.982" height="7.721" rx="2.273" transform="translate(0 9.865)" fill="#fff"/>
        <rect id="Rectangle_19" data-name="Rectangle 19" width="22.982" height="7.721" rx="2.273" transform="translate(25.718 9.865)" fill="#fff"/>
        <rect id="Rectangle_20" data-name="Rectangle 20" width="22.982" height="7.721" rx="2.273" transform="translate(51.437 9.865)" fill="#fff"/>
        <rect id="Rectangle_21" data-name="Rectangle 21" width="22.982" height="7.721" rx="2.273" transform="translate(0 19.731)" fill="#fff"/>
        <rect id="Rectangle_22" data-name="Rectangle 22" width="22.982" height="7.721" rx="2.273" transform="translate(25.718 19.731)" fill="#fff"/>
        <rect id="Rectangle_23" data-name="Rectangle 23" width="22.982" height="7.721" rx="2.273" transform="translate(51.437 19.731)" fill="#fff"/>
        <rect id="Rectangle_24" data-name="Rectangle 24" width="22.982" height="7.721" rx="2.273" transform="translate(25.718 29.596)" fill="#fff"/>
        <path id="Path_4213" data-name="Path 4213" d="M264.913,395.309H250.576l-3.094-3.6,3.094-4.125h14.337Z" transform="translate(-193.269 -357.992)" fill="#fff"/>
      </g>
      <g id="Group_162" data-name="Group 162" transform="translate(144.026 73.589)">
        <g id="Group_160" data-name="Group 160">
          <path id="Path_4214" data-name="Path 4214" d="M196.3,119.017l-.207-.156-.207.156s-10.565,6.008-15.33,8.287c0,0,2.279,12.845,3.936,18.646s8.08,8.908,11.6,10.98c3.522-2.072,9.944-5.179,11.6-10.98s3.936-18.646,3.936-18.646C206.869,125.024,196.3,119.017,196.3,119.017Z" transform="translate(-180.558 -118.861)" fill="#34838b"/>
        </g>
        <g id="Group_161" data-name="Group 161" transform="translate(6.887 10.979)">
          <path id="Path_4215" data-name="Path 4215" d="M203.132,156.794l-7.006-6.006a1.606,1.606,0,1,1,2.091-2.439l4.6,3.939,7.861-8.958a1.606,1.606,0,1,1,2.415,2.119Z" transform="translate(-195.564 -142.783)" fill="#fff"/>
        </g>
      </g>
      <g id="Group_163" data-name="Group 163" transform="translate(122.687 118.829)">
        <rect id="Rectangle_25" data-name="Rectangle 25" width="9.53" height="9.53" transform="translate(0 0)" fill="#fff" stroke="#263238" stroke-width="1"/>
        <rect id="Rectangle_26" data-name="Rectangle 26" width="9.53" height="9.53" transform="translate(12.845 0)" fill="#fff" stroke="#263238" stroke-width="1"/>
        <rect id="Rectangle_27" data-name="Rectangle 27" width="9.53" height="9.53" transform="translate(25.689 0)" fill="#fff" stroke="#263238" stroke-width="1"/>
        <rect id="Rectangle_28" data-name="Rectangle 28" width="9.53" height="9.53" transform="translate(38.534 0)" fill="#fff" stroke="#263238" stroke-width="1"/>
        <rect id="Rectangle_29" data-name="Rectangle 29" width="9.53" height="9.53" transform="translate(51.379 0)" fill="#fff" stroke="#263238" stroke-width="1"/>
        <rect id="Rectangle_30" data-name="Rectangle 30" width="9.53" height="9.53" transform="translate(64.224 0)" fill="#fff" stroke="#263238" stroke-width="1"/>
      </g>
      <g id="Group_164" data-name="Group 164" transform="translate(116.94 38.027)">
        <path id="Path_4216" data-name="Path 4216" d="M205.365,56.554V49.216a7.838,7.838,0,0,0-7.838-7.838H168.285l-.028.09c-.729,2.623-2.407,4.33-4.269,4.33H162.92c-1.861,0-3.54-1.707-4.269-4.33l-.024-.09h-29.25a7.834,7.834,0,0,0-7.834,7.834v7.342Z" transform="translate(-121.543 -41.378)" fill="#dbdbdb" stroke="#263238" stroke-linecap="round" stroke-linejoin="round" stroke-width="1"/>
      </g>
      <g id="Group_176" data-name="Group 176" transform="translate(113.035 35.184)">
        <path id="Path_4217" data-name="Path 4217" d="M206.093,83.534V67.781h-1.425V47.615a12.431,12.431,0,0,0-12.431-12.431H125.466a12.431,12.431,0,0,0-12.431,12.431V207.864A12.431,12.431,0,0,0,125.466,220.3h66.771a12.431,12.431,0,0,0,12.431-12.431V96.959h1.425V87.651h-1.425V83.534Zm-5.33,115.451a12.432,12.432,0,0,1-12.432,12.432H129.372a12.433,12.433,0,0,1-12.432-12.432V50.455a12.432,12.432,0,0,1,12.432-12.428h24.652l.025.09c.729,2.623,2.407,4.33,4.268,4.33h1.068c1.862,0,3.54-1.707,4.269-4.33l.028-.09H188.33a12.432,12.432,0,0,1,12.432,12.428Z" transform="translate(-113.035 -35.184)" fill="#34838b"/>
        <path id="Path_4218" data-name="Path 4218" d="M192.936,38.915H128.16A11.989,11.989,0,0,0,116.171,50.9V208.613A11.989,11.989,0,0,0,128.16,220.6h64.777a11.989,11.989,0,0,0,11.989-11.989V50.9A11.989,11.989,0,0,0,192.936,38.915Zm9.523,162.53a11.99,11.99,0,0,1-11.99,11.99H130.627a11.99,11.99,0,0,1-11.99-11.99V52.031a11.986,11.986,0,0,1,11.986-11.986h25.1l.025.09c.729,2.623,2.407,4.33,4.268,4.33h1.068c1.862,0,3.54-1.707,4.269-4.33l.028-.09h25.09a11.99,11.99,0,0,1,11.99,11.99Z" transform="translate(-114.732 -37.203)" fill="#263238" stroke="#27a2a8" stroke-linecap="round" stroke-linejoin="round" stroke-width="1"/>
        <path id="Path_4219" data-name="Path 4219" d="M212.093,41.3a1.167,1.167,0,1,0-1.167,1.167A1.167,1.167,0,0,0,212.093,41.3Z" transform="translate(-165.366 -37.86)" fill="#fff" stroke="#27a2a8" stroke-width="1"/>
        <g id="Group_175" data-name="Group 175" transform="translate(9.593 6.439)">
          <g id="Group_165" data-name="Group 165" transform="translate(0 0.48)">
            <path id="Path_4220" data-name="Path 4220" d="M135.7,51.249c0,1.18-1.326,1.606-1.331,2.506v.062h1.287v.4h-1.717v-.336c0-1.264,1.326-1.511,1.326-2.613,0-.4-.134-.615-.459-.615s-.459.229-.459.576v.347h-.408v-.319c0-.6.274-1,.878-1S135.7,50.651,135.7,51.249Z" transform="translate(-133.937 -50.259)" fill="#263238" stroke="#27a2a8" stroke-width="1"/>
            <path id="Path_4221" data-name="Path 4221" d="M140.369,51.244v.1a.778.778,0,0,1-.475.806.778.778,0,0,1,.475.811v.3c0,.6-.28.99-.884.99s-.878-.392-.878-.99V53h.408v.3c0,.352.145.565.459.565s.459-.207.459-.6v-.3c0-.386-.162-.57-.492-.582h-.235v-.392h.257a.47.47,0,0,0,.47-.537V51.26c0-.4-.14-.61-.459-.61s-.459.218-.459.57v.2h-.408v-.179c0-.6.28-.985.878-.985S140.369,50.645,140.369,51.244Z" transform="translate(-136.464 -50.259)" fill="#263238" stroke="#27a2a8" stroke-width="1"/>
            <path id="Path_4222" data-name="Path 4222" d="M143.794,53.051v.543h-.419v-.543Zm0,2.131v.543h-.419v-.543Z" transform="translate(-139.043 -51.77)" fill="#263238" stroke="#27a2a8" stroke-width="1"/>
            <path id="Path_4223" data-name="Path 4223" d="M145.682,51.939a.629.629,0,0,1,.582-.324c.5,0,.727.369.727.929v.766c0,.6-.285.99-.883.99s-.878-.392-.878-.99v-.263h.408v.291c0,.352.145.565.459.565s.459-.213.459-.565v-.761c0-.352-.146-.565-.459-.565a.422.422,0,0,0-.442.42v.09h-.408l.106-2.177H146.9v.392h-1.152Z" transform="translate(-140.046 -50.305)" fill="#263238" stroke="#27a2a8" stroke-width="1"/>
            <path id="Path_4224" data-name="Path 4224" d="M151.708,51.238v.073H151.3v-.1c0-.352-.145-.559-.464-.559s-.476.213-.476.632v.878a.631.631,0,0,1,.632-.419c.5,0,.727.364.727.928v.593c0,.6-.3.99-.9.99s-.9-.392-.9-.99v-2c0-.621.28-1.007.9-1.007C151.428,50.259,151.708,50.639,151.708,51.238ZM150.359,52.7v.587c0,.352.145.565.464.565s.464-.213.464-.565V52.7c0-.353-.151-.565-.464-.565S150.359,52.351,150.359,52.7Z" transform="translate(-142.586 -50.259)" fill="#263238" stroke="#27a2a8" stroke-width="1"/>
          </g>
          <g id="Group_174" data-name="Group 174" transform="translate(50.776)">
            <rect id="Rectangle_31" data-name="Rectangle 31" width="1.106" height="2.765" transform="translate(0 1.631)" fill="#263238" stroke="#27a2a8" stroke-width="1"/>
            <rect id="Rectangle_32" data-name="Rectangle 32" width="1.106" height="3.319" transform="translate(1.475 1.077)" fill="#263238" stroke="#27a2a8" stroke-width="1"/>
            <rect id="Rectangle_33" data-name="Rectangle 33" width="1.106" height="3.712" transform="translate(2.949 0.684)" fill="#263238" stroke="#27a2a8" stroke-width="1"/>
            <rect id="Rectangle_34" data-name="Rectangle 34" width="1.106" height="4.396" transform="translate(4.424)" fill="#263238" stroke="#27a2a8" stroke-width="1"/>
            <g id="Group_169" data-name="Group 169" transform="translate(12.58 0.265)">
              <g id="Group_166" data-name="Group 166">
                <path id="Path_4225" data-name="Path 4225" d="M278.612,53.846h-6.636V49.791h6.636Zm-6.267-.369h5.9V50.16h-5.9Z" transform="translate(-271.976 -49.791)" fill="#263238" stroke="#27a2a8" stroke-width="1"/>
              </g>
              <g id="Group_167" data-name="Group 167" transform="translate(0.922 0.77)">
                <rect id="Rectangle_35" data-name="Rectangle 35" width="3.502" height="2.515" fill="#263238" stroke="#27a2a8" stroke-width="1"/>
              </g>
              <g id="Group_168" data-name="Group 168" transform="translate(6.405 1.55)">
                <rect id="Rectangle_36" data-name="Rectangle 36" width="0.835" height="0.955" fill="#263238" stroke="#27a2a8" stroke-width="1"/>
              </g>
            </g>
            <g id="Group_170" data-name="Group 170" transform="translate(7.33 2.533)">
              <path id="Path_4226" data-name="Path 4226" d="M263.354,55.638a.244.244,0,0,1-.127-.035,1.935,1.935,0,0,0-2.28-.026.248.248,0,0,1-.326-.373,2.406,2.406,0,0,1,2.86-.027.248.248,0,0,1-.127.461Z" transform="translate(-260.538 -54.734)" fill="#263238" stroke="#27a2a8" stroke-width="1"/>
            </g>
            <g id="Group_171" data-name="Group 171" transform="translate(6.83 1.551)">
              <path id="Path_4227" data-name="Path 4227" d="M263.265,53.647a.247.247,0,0,1-.127-.035,2.8,2.8,0,0,0-3.278-.027.248.248,0,1,1-.327-.372,3.3,3.3,0,0,1,3.859-.027.248.248,0,0,1-.127.461Z" transform="translate(-259.448 -52.593)" fill="#263238" stroke="#27a2a8" stroke-width="1"/>
            </g>
            <g id="Group_172" data-name="Group 172" transform="translate(6.376 0.444)">
              <path id="Path_4228" data-name="Path 4228" d="M263.184,51.378a.252.252,0,0,1-.127-.035,3.534,3.534,0,0,0-4.185-.026.248.248,0,0,1-.327-.373,4.074,4.074,0,0,1,4.766-.027.248.248,0,0,1-.127.461Z" transform="translate(-258.46 -50.182)" fill="#263238" stroke="#27a2a8" stroke-width="1"/>
            </g>
            <g id="Group_173" data-name="Group 173" transform="translate(8.158 3.232)">
              <path id="Path_4229" data-name="Path 4229" d="M263.584,56.876a.622.622,0,1,1-.622-.621A.622.622,0,0,1,263.584,56.876Z" transform="translate(-262.341 -56.255)" fill="#263238" stroke="#27a2a8" stroke-width="1"/>
            </g>
          </g>
        </g>
      </g>
    </g>
  </g>
</svg>
